<?xml version="1.0" standalone="yes"?>
<svg xmlns="http://www.w3.org/2000/svg" width="1600" height="785">
<path style="fill:#171717; stroke:none;" d="M0 0L0 785L1600 785L1600 0L0 0z"/>
<path style="fill:#7f0103; stroke:none;" d="M200 246L200 306L800 306L800 246L200 246z"/>
<path style="fill:#616161; stroke:none;" d="M121 260L122 261L121 260z"/>
<path style="fill:#9d9d9d; stroke:none;" d="M122 260L123 261L122 260z"/>
<path style="fill:#fdfdfd; stroke:none;" d="M123 260C115.348 263.264 109.11 267.382 107.048 276C105.162 283.879 109.445 293.717 118.985 291.602C131.711 288.781 125.934 267.334 112 274L123 260z"/>
<path style="fill:#616161; stroke:none;" d="M137 260L138 261L137 260z"/>
<path style="fill:#9d9d9d; stroke:none;" d="M138.667 260.333L139.333 260.667L138.667 260.333z"/>
<path style="fill:#fdfdfd; stroke:none;" d="M140.001 260.577C126.07 262.414 127.626 294.108 142.996 291.756C155.583 289.831 154.429 258.675 140.001 260.577z"/>
<path style="fill:#9d9d9d; stroke:none;" d="M143 260L144 261L143 260z"/>
<path style="fill:#616161; stroke:none;" d="M144 260L145 261L144 260M162 260L163 261L162 260z"/>
<path style="fill:#9d9d9d; stroke:none;" d="M163 260L164 261L163 260z"/>
<path style="fill:#fdfdfd; stroke:none;" d="M164.004 260.663C151.19 263.41 152.673 295.596 167.996 291.562C180.573 288.252 179.14 257.418 164.004 260.663z"/>
<path style="fill:#9d9d9d; stroke:none;" d="M167.667 260.333L168.333 260.667L167.667 260.333z"/>
<path style="fill:#616161; stroke:none;" d="M169 260L170 261L169 260M118 261L119 262L118 261M124.333 261.667L124.667 262.333L124.333 261.667M135 261L136 262L135 261M146 261L147 262L146 261M160 261L161 262L160 261M171 261L172 262L171 261M116 262L117 263L116 262z"/>
<path style="fill:#9d9d9d; stroke:none;" d="M117 262L118 263L117 262z"/>
<path style="fill:#616161; stroke:none;" d="M134 262L135 263L134 262z"/>
<path style="fill:#9d9d9d; stroke:none;" d="M147 262L148 263L147 262M159 262L160 263L159 262z"/>
<path style="fill:#616161; stroke:none;" d="M172 262L173 263L172 262z"/>
<path style="fill:#9d9d9d; stroke:none;" d="M115 263L116 264L115 263M123 263L124 264L123 263z"/>
<path style="fill:#616161; stroke:none;" d="M133 263L134 264L133 263z"/>
<path style="fill:#9d9d9d; stroke:none;" d="M139 263L140 264L139 263z"/>
<path style="fill:#616161; stroke:none;" d="M140 263L140 264L143 264L140 263z"/>
<path style="fill:#9d9d9d; stroke:none;" d="M148 263L149 264L148 263M158 263L159 264L158 263z"/>
<path style="fill:#616161; stroke:none;" d="M164 263L164 264L167 264L164 263z"/>
<path style="fill:#9d9d9d; stroke:none;" d="M167 263L168 264L167 263z"/>
<path style="fill:#616161; stroke:none;" d="M173 263L174 264L173 263z"/>
<path style="fill:#9d9d9d; stroke:none;" d="M120 264L121 265L120 264z"/>
<path style="fill:#616161; stroke:none;" d="M121 264L122 265L121 264z"/>
<path style="fill:#9d9d9d; stroke:none;" d="M137 264L138 265L137 264z"/>
<path style="fill:#171717; stroke:none;" d="M138.419 265.032C132.029 269.138 134.63 293.26 143.581 287.802C150.066 283.847 147.819 258.993 138.419 265.032z"/>
<path style="fill:#9d9d9d; stroke:none;" d="M144 264L145 265L144 264z"/>
<path style="fill:#616161; stroke:none;" d="M149 264L150 265L149 264M157 264L158 265L157 264z"/>
<path style="fill:#9d9d9d; stroke:none;" d="M162 264L161 266L162 264z"/>
<path style="fill:#171717; stroke:none;" d="M163.278 265.032C157.311 268.677 158.84 292.611 167.86 287.928C175.253 284.089 172.758 259.241 163.278 265.032z"/>
<path style="fill:#9d9d9d; stroke:none;" d="M169 264L170 265L169 264z"/>
<path style="fill:#616161; stroke:none;" d="M112 265L113 266L112 265z"/>
<path style="fill:#9d9d9d; stroke:none;" d="M118 265L119 266L118 265M132 265L133 266L132 265M145 265L146 266L145 265M149 265L150 266L149 265M157 265L158 266L157 265M174 265L175 266L174 265z"/>
<path style="fill:#616161; stroke:none;" d="M111 266L112 267L111 266M117 266L118 267L117 266M136 266L137 267L136 266M150 266L151 267L150 266M156 266L157 267L156 266M170 266L171 267L170 266M116 267L117 268L116 267M131 267L132 268L131 267z"/>
<path style="fill:#9d9d9d; stroke:none;" d="M146 267L147 268L146 267M150 267L151 268L150 267M156 267L157 268L156 267M160 267L161 268L160 267z"/>
<path style="fill:#616161; stroke:none;" d="M175 267L176 268L175 267z"/>
<path style="fill:#9d9d9d; stroke:none;" d="M110 268L111 269L110 268z"/>
<path style="fill:#616161; stroke:none;" d="M115 268L116 269L115 268z"/>
<path style="fill:#9d9d9d; stroke:none;" d="M131 268L132 269L131 268M135 268L136 269L135 268z"/>
<path style="fill:#616161; stroke:none;" d="M146 268L147 269L146 268M160 268L161 269L160 268z"/>
<path style="fill:#9d9d9d; stroke:none;" d="M171 268L172 269L171 268M175 268L176 269L175 268M109 269L110 270L109 269z"/>
<path style="fill:#616161; stroke:none;" d="M114 269L115 270L114 269M135 269L136 270L135 269M171 269L172 270L171 269M108 270L109 271L108 270M113 270L114 271L113 270M151 270L152 271L151 270M155 270L156 271L155 270z"/>
<path style="fill:#9d9d9d; stroke:none;" d="M108 271L109 272L108 271z"/>
<path style="fill:#616161; stroke:none;" d="M130 271L130 274L131 274L130 271z"/>
<path style="fill:#9d9d9d; stroke:none;" d="M147 271L147 275L148 275L147 271M151 271L151 281L152 281L151 271M155 271L155 281L156 281L155 271M159 271L159 275L160 275L159 271z"/>
<path style="fill:#616161; stroke:none;" d="M176 271L176 274L177 274L176 271M112.667 272.333L113.333 272.667L112.667 272.333z"/>
<path style="fill:#9d9d9d; stroke:none;" d="M114 272L115 273L114 272M120 272L121 273L120 272z"/>
<path style="fill:#616161; stroke:none;" d="M121 272L122 273L121 272z"/>
<path style="fill:#9d9d9d; stroke:none;" d="M107 273L108 274L107 273M112 273L113 274L112 273M122 273L123 274L122 273M130 274L130 278L131 278L130 274M134 274L134 279L135 279L134 274M172 274L172 279L173 279L172 274M176 274L176 278L177 278L176 274z"/>
<path style="fill:#616161; stroke:none;" d="M106 275L107 276L106 275z"/>
<path style="fill:#9d9d9d; stroke:none;" d="M114 275L115 276L114 275z"/>
<path style="fill:#616161; stroke:none;" d="M115 275L115 276L118 276L115 275z"/>
<path style="fill:#9d9d9d; stroke:none;" d="M118 275L119 276L118 275M124 275L125 276L124 275z"/>
<path style="fill:#616161; stroke:none;" d="M147.333 275.667L147.667 276.333L147.333 275.667M159.333 275.667L159.667 276.333L159.333 275.667z"/>
<path style="fill:#9d9d9d; stroke:none;" d="M106 276L106 279L107 279L106 276M112 276L113 277L112 276z"/>
<path style="fill:#171717; stroke:none;" d="M113.434 277.029C107.692 280.929 113.468 291.926 119.682 287.218C125.15 283.075 119.873 272.654 113.434 277.029z"/>
<path style="fill:#9d9d9d; stroke:none;" d="M120 276L121 277L120 276z"/>
<path style="fill:#616161; stroke:none;" d="M125 276L126 277L125 276z"/>
<path style="fill:#9d9d9d; stroke:none;" d="M121 277L122 278L121 277M147 277L147 282L148 282L147 277M159 277L159 282L160 282L159 277z"/>
<path style="fill:#616161; stroke:none;" d="M111 278L112 279L111 278M126 278L127 279L126 278M130 278L130 281L131 281L130 278M176 278L176 281L177 281L176 278z"/>
<path style="fill:#9d9d9d; stroke:none;" d="M122.333 279.667L122.667 280.333L122.333 279.667M126 279L126 285L127 285L126 279M110 280L110 285L111 285L110 280z"/>
<path style="fill:#616161; stroke:none;" d="M122.333 281.667L122.667 282.333L122.333 281.667M151.333 281.667L151.667 282.333L151.333 281.667M155.333 281.667L155.667 282.333L155.333 281.667z"/>
<path style="fill:#9d9d9d; stroke:none;" d="M106.333 282.667L106.667 283.333L106.333 282.667z"/>
<path style="fill:#616161; stroke:none;" d="M135 282L136 283L135 282M171 282L172 283L171 282z"/>
<path style="fill:#9d9d9d; stroke:none;" d="M122.333 283.667L122.667 284.333L122.333 283.667M131.333 283.667L131.667 284.333L131.333 283.667M135 283L136 284L135 283z"/>
<path style="fill:#616161; stroke:none;" d="M146 283L147 284L146 283M160 283L161 284L160 283z"/>
<path style="fill:#9d9d9d; stroke:none;" d="M171 283L172 284L171 283M175.333 283.667L175.667 284.333L175.333 283.667z"/>
<path style="fill:#616161; stroke:none;" d="M106 284L107 285L106 284z"/>
<path style="fill:#9d9d9d; stroke:none;" d="M146 284L147 285L146 284M150 284L151 285L150 284M156 284L157 285L156 284M160 284L161 285L160 284z"/>
<path style="fill:#616161; stroke:none;" d="M126 285L127 286L126 285M131 285L132 286L131 285M150 285L151 286L150 285M156 285L157 286L156 285M175 285L176 286L175 285z"/>
<path style="fill:#9d9d9d; stroke:none;" d="M107 286L108 287L107 286M111 286L112 287L111 286M121 286L122 287L121 286M132 286L133 287L132 286M136 286L137 287L136 286z"/>
<path style="fill:#616161; stroke:none;" d="M145 286L146 287L145 286M161 286L162 287L161 286z"/>
<path style="fill:#9d9d9d; stroke:none;" d="M170 286L171 287L170 286M174 286L175 287L174 286z"/>
<path style="fill:#616161; stroke:none;" d="M107 287L108 288L107 287z"/>
<path style="fill:#9d9d9d; stroke:none;" d="M112 287L113 288L112 287z"/>
<path style="fill:#616161; stroke:none;" d="M120 287L121 288L120 287z"/>
<path style="fill:#9d9d9d; stroke:none;" d="M125 287L126 288L125 287z"/>
<path style="fill:#616161; stroke:none;" d="M132 287L133 288L132 287M137 287L138 288L137 287z"/>
<path style="fill:#9d9d9d; stroke:none;" d="M149 287L150 288L149 287M157 287L158 288L157 287z"/>
<path style="fill:#616161; stroke:none;" d="M169 287L170 288L169 287M174 287L175 288L174 287z"/>
<path style="fill:#9d9d9d; stroke:none;" d="M108 288L109 289L108 288z"/>
<path style="fill:#616161; stroke:none;" d="M114.667 288.333L115.333 288.667L114.667 288.333M118 288L119 289L118 288z"/>
<path style="fill:#9d9d9d; stroke:none;" d="M119 288L120 289L119 288M124 288L125 289L124 288M133 288L134 289L133 288M138 288L139 289L138 288z"/>
<path style="fill:#616161; stroke:none;" d="M143 288L144 289L143 288M163 288L164 289L163 288z"/>
<path style="fill:#9d9d9d; stroke:none;" d="M168 288L169 289L168 288M173 288L174 289L173 288M109 289L110 290L109 289M134 289L135 290L134 289M141 289L142 290L141 289M165.667 289.333L166.333 289.667L165.667 289.333M172 289L173 290L172 289M110 290L111 291L110 290M122 290L123 291L122 290M135 290L136 291L135 290z"/>
<path style="fill:#616161; stroke:none;" d="M147 290L148 291L147 290M159 290L160 291L159 290z"/>
<path style="fill:#9d9d9d; stroke:none;" d="M171 290L172 291L171 290z"/>
<path style="fill:#616161; stroke:none;" d="M111 291L112 292L111 291z"/>
<path style="fill:#9d9d9d; stroke:none;" d="M112 291L113 292L112 291M120 291L121 292L120 291z"/>
<path style="fill:#616161; stroke:none;" d="M121 291L122 292L121 291M136 291L137 292L136 291z"/>
<path style="fill:#9d9d9d; stroke:none;" d="M137 291L138 292L137 291M145 291L146 292L145 291M161 291L162 292L161 291M169 291L170 292L169 291z"/>
<path style="fill:#616161; stroke:none;" d="M170 291L171 292L170 291M114 292L114 293L119 293L114 292M139 292L139 293L144 293L139 292M163 292L163 293L168 293L163 292M1337 337L1338 338L1337 337z"/>
<path style="fill:#9d9d9d; stroke:none;" d="M1338.67 337.333L1339.33 337.667L1338.67 337.333z"/>
<path style="fill:#fdfdfd; stroke:none;" d="M1340 337L1330 340L1330 359L1317 359L1317 368C1320.32 368 1325.81 367.019 1328.4 369.603C1331.41 372.614 1330 380.12 1330 384C1330 395.521 1326.32 414.52 1334.39 423.895C1341.9 432.616 1361.95 434.138 1362 420C1357.49 420.57 1352.31 422.009 1348 419.821C1335.1 413.259 1341 380.301 1341 368L1361 368L1361 359L1341 359L1340 337z"/>
<path style="fill:#616161; stroke:none;" d="M1334 338L1335 339L1334 338z"/>
<path style="fill:#9d9d9d; stroke:none;" d="M1335 338L1336 339L1335 338z"/>
<path style="fill:#616161; stroke:none;" d="M1331 339L1332 340L1331 339z"/>
<path style="fill:#9d9d9d; stroke:none;" d="M1332 339L1333 340L1332 339M1329 340L1329 359L1330 359L1329 340z"/>
<path style="fill:#616161; stroke:none;" d="M1093 357L1093 358L1100 358L1093 357M1156 357L1156 358L1162 358L1156 357M1223 357L1223 358L1230 358L1223 357M1306 357L1306 358L1312 358L1306 357M1088 358L1089 359L1088 358z"/>
<path style="fill:#9d9d9d; stroke:none;" d="M1089.67 358.333L1090.33 358.667L1089.67 358.333z"/>
<path style="fill:#fdfdfd; stroke:none;" d="M1072 371L1072 359L1061 359C1066.09 380.368 1062 407.031 1062 429L1073 429C1073 413.585 1069.13 391.936 1076.91 378.004C1082.69 367.63 1097.24 362.584 1105.58 373.043C1115.42 385.385 1110 414.073 1110 429L1121 429C1121 411.62 1124.56 389.63 1118.9 373C1114.12 358.987 1097.9 354.47 1085 360.353C1079.65 362.792 1076.44 367.421 1072 371z"/>
<path style="fill:#9d9d9d; stroke:none;" d="M1103 358L1104 359L1103 358z"/>
<path style="fill:#616161; stroke:none;" d="M1104 358L1105 359L1104 358M1150.67 358.333L1151.33 358.667L1150.67 358.333z"/>
<path style="fill:#9d9d9d; stroke:none;" d="M1152 358L1153 359L1152 358z"/>
<path style="fill:#fdfdfd; stroke:none;" d="M1181 369C1172.5 356.026 1145.34 352.077 1138.23 369.001C1126.96 395.801 1170.12 390.261 1171.67 409C1172.51 419.206 1159.73 422.815 1152 420.149C1148.8 419.047 1146.25 416.022 1143 415.291C1140.56 414.742 1137.28 416.526 1136.92 419.171C1136.21 424.42 1145.17 427.789 1149 428.84C1160.04 431.866 1174.74 429.796 1180.91 418.999C1191.7 400.111 1171.1 391.581 1158 385.215C1152.27 382.432 1144.7 376.523 1151.15 370.228C1161.25 360.366 1170.79 375.976 1181 369z"/>
<path style="fill:#9d9d9d; stroke:none;" d="M1165.67 358.333L1166.33 358.667L1165.67 358.333z"/>
<path style="fill:#616161; stroke:none;" d="M1167 358L1168 359L1167 358M1217.67 358.333L1218.33 358.667L1217.67 358.333z"/>
<path style="fill:#9d9d9d; stroke:none;" d="M1219 358L1220 359L1219 358z"/>
<path style="fill:#fdfdfd; stroke:none;" d="M1220 358.465C1193.82 363.184 1185.69 399.472 1201.39 418.985C1209.02 428.464 1222.35 431.579 1234 429.675C1261.25 425.221 1269.81 387.808 1252.67 368.04C1244.87 359.047 1231.35 356.418 1220 358.465z"/>
<path style="fill:#9d9d9d; stroke:none;" d="M1235 358L1236 359L1235 358z"/>
<path style="fill:#616161; stroke:none;" d="M1236 358L1237 359L1236 358M1301 358L1302 359L1301 358z"/>
<path style="fill:#9d9d9d; stroke:none;" d="M1302.67 358.333L1303.33 358.667L1302.67 358.333z"/>
<path style="fill:#fdfdfd; stroke:none;" d="M1288 373L1287 373L1286 359L1276 359L1276 429L1287 429C1287 407.376 1281.17 367.267 1313 367L1313 358C1301.78 358.007 1291.54 361.094 1288 373z"/>
<path style="fill:#9d9d9d; stroke:none;" d="M1313 358L1310 367L1310 368L1314 368L1313 358M984 359L984 400L985 400C985 388.304 988.511 369.75 984 359z"/>
<path style="fill:#fdfdfd; stroke:none;" d="M985 359C985 376.853 980.269 402.769 988.825 418.999C997.628 435.7 1023.96 432.494 1032 417L1033 417C1035.21 426.294 1034.41 428.999 1045 429L1044 359L1033 359C1033 374.232 1036.86 396.242 1029.09 409.985C1023.6 419.713 1009.66 425.347 1001.22 415.945C990.391 403.869 996 374.143 996 359L985 359z"/>
<path style="fill:#616161; stroke:none;" d="M996 359L996 399L997 399C997 387.566 1000.41 369.512 996 359z"/>
<path style="fill:#9d9d9d; stroke:none;" d="M1032 359L1032 398L1033 398C1033 386.828 1036.31 369.274 1032 359z"/>
<path style="fill:#616161; stroke:none;" d="M1044 359L1044 420L1045 420L1045 379L1044 359M1072 359L1072 362L1073 362L1072 359z"/>
<path style="fill:#9d9d9d; stroke:none;" d="M1086 359L1087 360L1086 359M1106 359L1107 360L1106 359z"/>
<path style="fill:#616161; stroke:none;" d="M1107 359L1108 360L1107 359z"/>
<path style="fill:#9d9d9d; stroke:none;" d="M1148 359L1149 360L1148 359M1169 359L1170 360L1169 359z"/>
<path style="fill:#616161; stroke:none;" d="M1170 359L1171 360L1170 359M1214 359L1215 360L1214 359z"/>
<path style="fill:#9d9d9d; stroke:none;" d="M1215 359L1216 360L1215 359M1238.67 359.333L1239.33 359.667L1238.67 359.333z"/>
<path style="fill:#616161; stroke:none;" d="M1240 359L1241 360L1240 359z"/>
<path style="fill:#9d9d9d; stroke:none;" d="M1275 359L1275 368L1276 368L1275 359z"/>
<path style="fill:#616161; stroke:none;" d="M1286.33 359.667L1286.67 360.333L1286.33 359.667M1299 359L1300 360L1299 359M1316 359L1316 368L1317 368L1316 359z"/>
<path style="fill:#9d9d9d; stroke:none;" d="M1061 360L1061 368L1062 368L1061 360M1084 360L1085 361L1084 360z"/>
<path style="fill:#616161; stroke:none;" d="M1109 360L1110 361L1109 360z"/>
<path style="fill:#9d9d9d; stroke:none;" d="M1146 360L1147 361L1146 360z"/>
<path style="fill:#616161; stroke:none;" d="M1172 360L1173 361L1172 360z"/>
<path style="fill:#9d9d9d; stroke:none;" d="M1212 360L1213 361L1212 360z"/>
<path style="fill:#616161; stroke:none;" d="M1242 360L1243 361L1242 360M1297 360L1298 361L1297 360z"/>
<path style="fill:#7f0103; stroke:none;" d="M200 361L200 421L450 421L450 361L200 361z"/>
<path style="fill:#9d9d9d; stroke:none;" d="M1082 361L1083 362L1082 361M1110 361L1111 362L1110 361M1144 361L1145 362L1144 361M1173 361L1174 362L1173 361M1210 361L1211 362L1210 361z"/>
<path style="fill:#616161; stroke:none;" d="M1244 361L1245 362L1244 361z"/>
<path style="fill:#9d9d9d; stroke:none;" d="M1286 361L1286 369L1287 369L1286 361z"/>
<path style="fill:#616161; stroke:none;" d="M1295 361L1296 362L1295 361z"/>
<path style="fill:#9d9d9d; stroke:none;" d="M1072 362L1072 371L1073 371L1072 362z"/>
<path style="fill:#616161; stroke:none;" d="M1080 362L1081 363L1080 362M1112 362L1113 363L1112 362M1142 362L1143 363L1142 362M1175 362L1176 363L1175 362M1208 362L1209 363L1208 362M1246 362L1247 363L1246 362z"/>
<path style="fill:#9d9d9d; stroke:none;" d="M1294 362L1295 363L1294 362M1079 363L1080 364L1079 363z"/>
<path style="fill:#616161; stroke:none;" d="M1113 363L1114 364L1113 363M1141 363L1142 364L1141 363z"/>
<path style="fill:#9d9d9d; stroke:none;" d="M1176 363L1177 364L1176 363M1207 363L1208 364L1207 363M1247 363L1248 364L1247 363M1293 363L1294 364L1293 363M1078 364L1079 365L1078 364z"/>
<path style="fill:#616161; stroke:none;" d="M1114 364L1115 365L1114 364M1140 364L1141 365L1140 364M1205 364L1206 365L1205 364z"/>
<path style="fill:#9d9d9d; stroke:none;" d="M1292 364L1293 365L1292 364M1077 365L1078 366L1077 365z"/>
<path style="fill:#616161; stroke:none;" d="M1115 365L1116 366L1115 365z"/>
<path style="fill:#9d9d9d; stroke:none;" d="M1178 365L1179 366L1178 365z"/>
<path style="fill:#616161; stroke:none;" d="M1204 365L1205 366L1204 365M1250 365L1251 366L1250 365z"/>
<path style="fill:#9d9d9d; stroke:none;" d="M1291 365L1292 366L1291 365M1076 366L1077 367L1076 366M1139 366L1140 367L1139 366M1159.67 366.333L1160.33 366.667L1159.67 366.333M1179 366L1180 367L1179 366z"/>
<path style="fill:#616161; stroke:none;" d="M1203 366L1204 367L1203 366z"/>
<path style="fill:#9d9d9d; stroke:none;" d="M1227 366L1228 367L1227 366z"/>
<path style="fill:#616161; stroke:none;" d="M1251 366L1252 367L1251 366M1290 366L1291 367L1290 366M1075 367L1076 368L1075 367z"/>
<path style="fill:#9d9d9d; stroke:none;" d="M1089 367L1089 368L1092 368L1089 367z"/>
<path style="fill:#616161; stroke:none;" d="M1092.67 367.333L1093.33 367.667L1092.67 367.333M1095 367L1095 368L1098 368L1095 367z"/>
<path style="fill:#9d9d9d; stroke:none;" d="M1098 367L1099 368L1098 367z"/>
<path style="fill:#616161; stroke:none;" d="M1116 367L1117 368L1116 367M1138 367L1139 368L1138 367z"/>
<path style="fill:#9d9d9d; stroke:none;" d="M1154 367L1155 368L1154 367z"/>
<path style="fill:#616161; stroke:none;" d="M1155 367L1156 368L1155 367M1164 367L1165 368L1164 367z"/>
<path style="fill:#9d9d9d; stroke:none;" d="M1165 367L1166 368L1165 367z"/>
<path style="fill:#616161; stroke:none;" d="M1180 367L1181 368L1180 367M1202 367L1203 368L1202 367z"/>
<path style="fill:#9d9d9d; stroke:none;" d="M1221 367L1222 368L1221 367z"/>
<path style="fill:#616161; stroke:none;" d="M1222 367L1223 368L1222 367z"/>
<path style="fill:#171717; stroke:none;" d="M1223 367.468C1195.61 372.725 1201.42 426.398 1232 420.532C1259.35 415.284 1253.53 361.611 1223 367.468z"/>
<path style="fill:#616161; stroke:none;" d="M1232 367L1233 368L1232 367z"/>
<path style="fill:#9d9d9d; stroke:none;" d="M1233 367L1234 368L1233 367z"/>
<path style="fill:#616161; stroke:none;" d="M1252 367L1253 368L1252 367z"/>
<path style="fill:#9d9d9d; stroke:none;" d="M1305 367L1305 368L1308 368L1305 367z"/>
<path style="fill:#616161; stroke:none;" d="M1308.67 367.333L1309.33 367.667L1308.67 367.333M1061 368L1061 429L1062 429L1062 388L1061 368M1074 368L1075 369L1074 368M1087 368L1088 369L1087 368M1100 368L1101 369L1100 368z"/>
<path style="fill:#9d9d9d; stroke:none;" d="M1152 368L1153 369L1152 368z"/>
<path style="fill:#616161; stroke:none;" d="M1167 368L1168 369L1167 368M1201 368L1202 369L1201 368z"/>
<path style="fill:#9d9d9d; stroke:none;" d="M1218 368L1219 369L1218 368M1236 368L1237 369L1236 368z"/>
<path style="fill:#616161; stroke:none;" d="M1275 368L1275 429L1276 429L1276 388L1275 368z"/>
<path style="fill:#9d9d9d; stroke:none;" d="M1289 368L1290 369L1289 368M1302 368L1303 369L1302 368z"/>
<path style="fill:#616161; stroke:none;" d="M1303 368L1304 369L1303 368M1317 368L1317 369L1329 369L1317 368M1341 368L1341 369L1361 369L1341 368z"/>
<path style="fill:#9d9d9d; stroke:none;" d="M1074 369L1075 370L1074 369M1084 369L1085 370L1084 369z"/>
<path style="fill:#616161; stroke:none;" d="M1085 369L1086 370L1085 369z"/>
<path style="fill:#9d9d9d; stroke:none;" d="M1102 369L1103 370L1102 369M1117 369L1118 370L1117 369z"/>
<path style="fill:#616161; stroke:none;" d="M1137 369L1138 370L1137 369z"/>
<path style="fill:#9d9d9d; stroke:none;" d="M1169 369L1170 370L1169 369z"/>
<path style="fill:#616161; stroke:none;" d="M1180 369L1181 370L1180 369z"/>
<path style="fill:#9d9d9d; stroke:none;" d="M1216 369L1217 370L1216 369M1238 369L1239 370L1238 369z"/>
<path style="fill:#616161; stroke:none;" d="M1288 369L1289 370L1288 369z"/>
<path style="fill:#9d9d9d; stroke:none;" d="M1300 369L1301 370L1300 369M1329 369L1329 413L1330 413C1330 400.52 1333.81 380.463 1329 369z"/>
<path style="fill:#616161; stroke:none;" d="M1073 370L1074 371L1073 370M1083 370L1084 371L1083 370M1103 370L1104 371L1103 370z"/>
<path style="fill:#9d9d9d; stroke:none;" d="M1137 370L1138 371L1137 370z"/>
<path style="fill:#616161; stroke:none;" d="M1170 370L1171 371L1170 370z"/>
<path style="fill:#9d9d9d; stroke:none;" d="M1178 370L1179 371L1178 370z"/>
<path style="fill:#616161; stroke:none;" d="M1215 370L1216 371L1215 370M1239 370L1240 371L1239 370z"/>
<path style="fill:#9d9d9d; stroke:none;" d="M1254 370L1255 371L1254 370M1288 370L1289 371L1288 370M1298 370L1299 371L1298 370z"/>
<path style="fill:#616161; stroke:none;" d="M1104 371L1105 372L1104 371z"/>
<path style="fill:#9d9d9d; stroke:none;" d="M1118 371L1119 372L1118 371z"/>
<path style="fill:#616161; stroke:none;" d="M1149 371L1150 372L1149 371M1171 371L1172 372L1171 371M1177 371L1178 372L1177 371z"/>
<path style="fill:#9d9d9d; stroke:none;" d="M1199 371L1200 372L1199 371M1213 371L1214 372L1213 371z"/>
<path style="fill:#616161; stroke:none;" d="M1255 371L1256 372L1255 371M1287 371L1288 372L1287 371z"/>
<path style="fill:#9d9d9d; stroke:none;" d="M1297 371L1298 372L1297 371M1080 372L1081 373L1080 372z"/>
<path style="fill:#616161; stroke:none;" d="M1105 372L1106 373L1105 372M1136.33 372.667L1136.67 373.333L1136.33 372.667z"/>
<path style="fill:#9d9d9d; stroke:none;" d="M1148 372L1149 373L1148 372z"/>
<path style="fill:#616161; stroke:none;" d="M1172 372L1173 373L1172 372z"/>
<path style="fill:#9d9d9d; stroke:none;" d="M1212 372L1213 373L1212 372M1242 372L1243 373L1242 372M1287 372L1288 373L1287 372M1296 372L1297 373L1296 372M1079 373L1080 374L1079 373M1106 373L1107 374L1106 373z"/>
<path style="fill:#616161; stroke:none;" d="M1119 373L1120 374L1119 373M1148 373L1148 377L1149 377L1148 373z"/>
<path style="fill:#9d9d9d; stroke:none;" d="M1173.67 373.333L1174.33 373.667L1173.67 373.333M1198 373L1199 374L1198 373M1211 373L1212 374L1211 373M1243 373L1244 374L1243 373M1256 373L1257 374L1256 373z"/>
<path style="fill:#616161; stroke:none;" d="M1295 373L1296 374L1295 373M1106 374L1107 375L1106 374z"/>
<path style="fill:#9d9d9d; stroke:none;" d="M1119 374L1120 375L1119 374M1136 374L1136 377L1137 377L1136 374z"/>
<path style="fill:#616161; stroke:none;" d="M1197 374L1198 375L1197 374M1294 374L1295 375L1294 374M111 375L112 376L111 375z"/>
<path style="fill:#9d9d9d; stroke:none;" d="M112.667 375.333L113.333 375.667L112.667 375.333z"/>
<path style="fill:#fdfdfd; stroke:none;" d="M108 382C113.687 378.632 123.586 378.084 120.001 388C117.287 395.505 108.252 399.235 107 407L126 407L126 404L112 404C117.458 398.538 130.542 386.799 122.566 378.303C118.112 373.559 107.887 374.676 108 382z"/>
<path style="fill:#9d9d9d; stroke:none;" d="M117.667 375.333L118.333 375.667L117.667 375.333z"/>
<path style="fill:#616161; stroke:none;" d="M119 375L120 376L119 375M133 375L134 376L133 375z"/>
<path style="fill:#9d9d9d; stroke:none;" d="M133 376L133 377L150 376L133 376z"/>
<path style="fill:#616161; stroke:none;" d="M150 375L150 379L151 379L150 375M162 375L163 376L162 375z"/>
<path style="fill:#9d9d9d; stroke:none;" d="M163 375L164 376L163 375z"/>
<path style="fill:#fdfdfd; stroke:none;" d="M164.004 375.663C151.191 378.41 152.673 410.596 167.996 406.562C180.573 403.251 179.14 372.418 164.004 375.663z"/>
<path style="fill:#9d9d9d; stroke:none;" d="M167.667 375.333L168.333 375.667L167.667 375.333z"/>
<path style="fill:#616161; stroke:none;" d="M169 375L170 376L169 375M1078 375L1079 376L1078 375z"/>
<path style="fill:#9d9d9d; stroke:none;" d="M1107 375L1108 376L1107 375M1197 375L1198 376L1197 375z"/>
<path style="fill:#616161; stroke:none;" d="M1210 375L1211 376L1210 375M1244 375L1245 376L1244 375z"/>
<path style="fill:#9d9d9d; stroke:none;" d="M1257 375L1258 376L1257 375M1293 375L1294 376L1293 375z"/>
<path style="fill:#616161; stroke:none;" d="M109 376L110 377L109 376M121 376L122 377L121 376z"/>
<path style="fill:#fdfdfd; stroke:none;" d="M132 392C135.334 391.567 139.646 388.843 142.891 390.287C148.124 392.615 147.781 400.47 142.941 402.957C139.153 404.903 134.931 401.726 131 402C144.897 419.531 160.244 388.642 142.998 387.123C140.592 386.912 138.315 387.449 136 388L137 379L150 379L150 376C135.183 376 133.186 376.977 132 392z"/>
<path style="fill:#616161; stroke:none;" d="M160 376L161 377L160 376M171 376L172 377L171 376z"/>
<path style="fill:#9d9d9d; stroke:none;" d="M1077 376L1078 377L1077 376z"/>
<path style="fill:#616161; stroke:none;" d="M1107 376L1108 377L1107 376z"/>
<path style="fill:#9d9d9d; stroke:none;" d="M1209 376L1210 377L1209 376M1245 376L1246 377L1245 376M108 377L109 378L108 377M122 377L123 378L122 377M159 377L160 378L159 377z"/>
<path style="fill:#616161; stroke:none;" d="M172 377L173 378L172 377M1120.33 377.667L1120.67 378.333L1120.33 377.667M1136.33 377.667L1136.67 378.333L1136.33 377.667z"/>
<path style="fill:#9d9d9d; stroke:none;" d="M1148 377L1149 378L1148 377M1196 377L1197 378L1196 377M1258 377L1259 378L1258 377z"/>
<path style="fill:#616161; stroke:none;" d="M1292 377L1293 378L1292 377z"/>
<path style="fill:#9d9d9d; stroke:none;" d="M107 378L108 379L107 378M113 378L113 379L118 379L113 378M123 378L124 379L123 378M158 378L159 379L158 378z"/>
<path style="fill:#616161; stroke:none;" d="M164 378L164 379L167 379L164 378z"/>
<path style="fill:#9d9d9d; stroke:none;" d="M167 378L168 379L167 378z"/>
<path style="fill:#616161; stroke:none;" d="M173 378L174 379L173 378M1076 378L1077 379L1076 378z"/>
<path style="fill:#9d9d9d; stroke:none;" d="M1108 378L1109 379L1108 378M1208 378L1209 379L1208 378M1246 378L1247 379L1246 378M1291 378L1292 379L1291 378M106.333 379.667L106.667 380.333L106.333 379.667M111 379L112 380L111 379z"/>
<path style="fill:#616161; stroke:none;" d="M118 379L119 380L118 379M124 379L125 380L124 379M157 379L158 380L157 379z"/>
<path style="fill:#9d9d9d; stroke:none;" d="M162 379L161 381L162 379z"/>
<path style="fill:#171717; stroke:none;" d="M163.278 380.032C157.311 383.677 158.84 407.611 167.86 402.928C175.253 399.089 172.758 374.241 163.278 380.032z"/>
<path style="fill:#9d9d9d; stroke:none;" d="M169 379L170 380L169 379z"/>
<path style="fill:#616161; stroke:none;" d="M1108.33 379.667L1108.67 380.333L1108.33 379.667z"/>
<path style="fill:#9d9d9d; stroke:none;" d="M1120.33 379.667L1120.67 380.333L1120.33 379.667M1149 379L1150 380L1149 379z"/>
<path style="fill:#616161; stroke:none;" d="M1195 379L1196 380L1195 379M1246 379L1247 380L1246 379M1259 379L1260 380L1259 379M110 380L111 381L110 380z"/>
<path style="fill:#9d9d9d; stroke:none;" d="M124 380L125 381L124 380M157 380L158 381L157 380M174 380L175 381L174 380M1075 380L1076 381L1075 380z"/>
<path style="fill:#616161; stroke:none;" d="M1150 380L1151 381L1150 380z"/>
<path style="fill:#9d9d9d; stroke:none;" d="M1195 380L1196 381L1195 380M1207 380L1208 381L1207 380M1247 380L1248 381L1247 380M1259.33 380.667L1259.67 381.333L1259.33 380.667M1290 380L1291 381L1290 380M107 381L108 382L107 381z"/>
<path style="fill:#616161; stroke:none;" d="M120.333 381.667L120.667 382.333L120.333 381.667M132 381L132 384L133 384L132 381M156 381L157 382L156 381M170 381L171 382L170 381M1075 381L1076 382L1075 381z"/>
<path style="fill:#9d9d9d; stroke:none;" d="M1137 381L1138 382L1137 381M1151 381L1152 382L1151 381z"/>
<path style="fill:#616161; stroke:none;" d="M1207 381L1208 382L1207 381M1247 381L1248 382L1247 381z"/>
<path style="fill:#9d9d9d; stroke:none;" d="M136 382L136 386L137 386L136 382M156 382L157 383L156 382M160 382L161 383L160 382z"/>
<path style="fill:#616161; stroke:none;" d="M175 382L176 383L175 382M1137 382L1138 383L1137 382z"/>
<path style="fill:#9d9d9d; stroke:none;" d="M1152 382L1153 383L1152 382M1289 382L1290 383L1289 382z"/>
<path style="fill:#616161; stroke:none;" d="M125.333 383.667L125.667 384.333L125.333 383.667M160 383L161 384L160 383z"/>
<path style="fill:#9d9d9d; stroke:none;" d="M171 383L172 384L171 383M175 383L176 384L175 383M1074 383L1075 384L1074 383M1109 383L1109 429L1110 429C1110 415.997 1114.01 394.939 1109 383M1138 383L1139 384L1138 383M1154 383L1155 384L1154 383z"/>
<path style="fill:#616161; stroke:none;" d="M1194 383L1195 384L1194 383z"/>
<path style="fill:#9d9d9d; stroke:none;" d="M1206.33 383.667L1206.67 384.333L1206.33 383.667M1248.33 383.667L1248.67 384.333L1248.33 383.667z"/>
<path style="fill:#616161; stroke:none;" d="M1260 383L1261 384L1260 383M1289 383L1290 384L1289 383z"/>
<path style="fill:#9d9d9d; stroke:none;" d="M132 384L132 388L133 388L132 384z"/>
<path style="fill:#616161; stroke:none;" d="M171 384L172 385L171 384M1074 384L1075 385L1074 384M1121 384L1121 429L1122 429C1122 416.258 1125.91 395.701 1121 384z"/>
<path style="fill:#9d9d9d; stroke:none;" d="M1156 384L1157 385L1156 384M1194.33 384.667L1194.67 385.333L1194.33 384.667M1260.33 384.667L1260.67 385.333L1260.33 384.667z"/>
<path style="fill:#616161; stroke:none;" d="M120.333 385.667L120.667 386.333L120.333 385.667M155 385L156 386L155 385M1139 385L1140 386L1139 385z"/>
<path style="fill:#9d9d9d; stroke:none;" d="M1158 385L1159 386L1158 385z"/>
<path style="fill:#616161; stroke:none;" d="M1206 385L1207 386L1206 385M1248 385L1249 386L1248 385z"/>
<path style="fill:#9d9d9d; stroke:none;" d="M1288 385L1289 386L1288 385z"/>
<path style="fill:#616161; stroke:none;" d="M136.333 386.667L136.667 387.333L136.333 386.667M139 386L140 387L139 386z"/>
<path style="fill:#9d9d9d; stroke:none;" d="M140 386L140 387L144 387L140 386z"/>
<path style="fill:#616161; stroke:none;" d="M144 386L145 387L144 386z"/>
<path style="fill:#9d9d9d; stroke:none;" d="M155 386L155 396L156 396L155 386M159 386L159 390L160 390L159 386z"/>
<path style="fill:#616161; stroke:none;" d="M176 386L176 389L177 389L176 386z"/>
<path style="fill:#9d9d9d; stroke:none;" d="M1140 386L1141 387L1140 386M1160 386L1161 387L1160 386z"/>
<path style="fill:#616161; stroke:none;" d="M1161 386L1162 387L1161 386M1288.33 386.667L1288.67 387.333L1288.33 386.667z"/>
<path style="fill:#9d9d9d; stroke:none;" d="M120 387L121 388L120 387M124 387L125 388L124 387M137 387L138 388L137 387M146 387L147 388L146 387M1141 387L1142 388L1141 387M1163 387L1164 388L1163 387z"/>
<path style="fill:#616161; stroke:none;" d="M124 388L125 389L124 388M148 388L149 389L148 388z"/>
<path style="fill:#9d9d9d; stroke:none;" d="M1073 388L1073 429L1074 429C1074 417.304 1077.51 398.75 1073 388M1142 388L1143 389L1142 388M1165 388L1166 389L1165 388z"/>
<path style="fill:#616161; stroke:none;" d="M1166 388L1167 389L1166 388M1193 388L1193 400L1194 400L1193 388z"/>
<path style="fill:#9d9d9d; stroke:none;" d="M1205 388L1205 400L1206 400L1205 388M119 389L120 390L119 389M139 389L139 390L143 390L139 389z"/>
<path style="fill:#616161; stroke:none;" d="M149 389L150 390L149 389z"/>
<path style="fill:#9d9d9d; stroke:none;" d="M172 389L172 394L173 394L172 389M176 389L176 393L177 393L176 389z"/>
<path style="fill:#616161; stroke:none;" d="M1143 389L1144 390L1143 389M1168 389L1169 390L1168 389z"/>
<path style="fill:#9d9d9d; stroke:none;" d="M1249 389L1249 399L1250 399L1249 389M123 390L124 391L123 390M137 390L138 391L137 390M144 390L145 391L144 390M149 390L150 391L149 390z"/>
<path style="fill:#616161; stroke:none;" d="M159.333 390.667L159.667 391.333L159.333 390.667z"/>
<path style="fill:#9d9d9d; stroke:none;" d="M1145 390L1146 391L1145 390z"/>
<path style="fill:#616161; stroke:none;" d="M1170 390L1171 391L1170 390M1261 390L1261 398L1262 398L1261 390z"/>
<path style="fill:#9d9d9d; stroke:none;" d="M118 391L119 392L118 391M136 391L137 392L136 391M145 391L146 392L145 391z"/>
<path style="fill:#616161; stroke:none;" d="M150 391L151 392L150 391M1146 391L1147 392L1146 391M1172 391L1173 392L1172 391M117 392L118 393L117 392M122 392L123 393L122 392z"/>
<path style="fill:#9d9d9d; stroke:none;" d="M132 392L132 393L135 393L132 392z"/>
<path style="fill:#616161; stroke:none;" d="M135 392L136 393L135 392z"/>
<path style="fill:#9d9d9d; stroke:none;" d="M159 392L159 397L160 397L159 392z"/>
<path style="fill:#616161; stroke:none;" d="M1148 392L1149 393L1148 392M1174 392L1175 393L1174 392z"/>
<path style="fill:#9d9d9d; stroke:none;" d="M1287 392L1287 429L1288 429C1288 418.351 1291.11 401.798 1287 392M121 393L122 394L121 393z"/>
<path style="fill:#616161; stroke:none;" d="M146 393L147 394L146 393M176 393L176 396L177 396L176 393M1150 393L1151 394L1150 393z"/>
<path style="fill:#9d9d9d; stroke:none;" d="M1175 393L1176 394L1175 393M116 394L117 395L116 394z"/>
<path style="fill:#616161; stroke:none;" d="M151.333 394.667L151.667 395.333L151.333 394.667M1152 394L1153 395L1152 394z"/>
<path style="fill:#9d9d9d; stroke:none;" d="M1153 394L1154 395L1153 394M115 395L116 396L115 395M1155 395L1156 396L1155 395M114 396L115 397L114 396z"/>
<path style="fill:#616161; stroke:none;" d="M119 396L120 397L119 396z"/>
<path style="fill:#9d9d9d; stroke:none;" d="M151 396L152 397L151 396z"/>
<path style="fill:#616161; stroke:none;" d="M155.333 396.667L155.667 397.333L155.333 396.667M1157 396L1158 397L1157 396z"/>
<path style="fill:#9d9d9d; stroke:none;" d="M1158 396L1159 397L1158 396z"/>
<path style="fill:#616161; stroke:none;" d="M1179 396L1180 397L1179 396M113 397L114 398L113 397M118 397L119 398L118 397M151.333 397.667L151.667 398.333L151.333 397.667M171 397L172 398L171 397z"/>
<path style="fill:#9d9d9d; stroke:none;" d="M1160 397L1161 398L1160 397z"/>
<path style="fill:#616161; stroke:none;" d="M112 398L113 399L112 398z"/>
<path style="fill:#9d9d9d; stroke:none;" d="M117 398L118 399L117 398z"/>
<path style="fill:#616161; stroke:none;" d="M160 398L161 399L160 398z"/>
<path style="fill:#9d9d9d; stroke:none;" d="M171 398L172 399L171 398M175.333 398.667L175.667 399.333L175.333 398.667z"/>
<path style="fill:#616161; stroke:none;" d="M1162 398L1163 399L1162 398z"/>
<path style="fill:#9d9d9d; stroke:none;" d="M1180 398L1181 399L1180 398z"/>
<path style="fill:#616161; stroke:none;" d="M111 399L112 400L111 399z"/>
<path style="fill:#9d9d9d; stroke:none;" d="M116 399L117 400L116 399z"/>
<path style="fill:#616161; stroke:none;" d="M146 399L147 400L146 399z"/>
<path style="fill:#9d9d9d; stroke:none;" d="M156 399L157 400L156 399M160 399L161 400L160 399M996 399L996 405L997 405L996 399z"/>
<path style="fill:#616161; stroke:none;" d="M1164 399L1165 400L1164 399M1181 399L1182 400L1181 399z"/>
<path style="fill:#9d9d9d; stroke:none;" d="M110 400L111 401L110 400M115 400L116 401L115 400z"/>
<path style="fill:#616161; stroke:none;" d="M132 400L133 401L132 400z"/>
<path style="fill:#9d9d9d; stroke:none;" d="M146 400L147 401L146 400z"/>
<path style="fill:#616161; stroke:none;" d="M156 400L157 401L156 400M175 400L176 401L175 400M984 400L984 405L985 405L984 400z"/>
<path style="fill:#9d9d9d; stroke:none;" d="M1166 400L1167 401L1166 400M109 401L110 402L109 401M114 401L115 402L114 401z"/>
<path style="fill:#616161; stroke:none;" d="M131 401L132 402L131 401M145 401L146 402L145 401M150 401L151 402L150 401M161 401L162 402L161 401z"/>
<path style="fill:#9d9d9d; stroke:none;" d="M170 401L171 402L170 401M174 401L175 402L174 401z"/>
<path style="fill:#616161; stroke:none;" d="M1167 401L1168 402L1167 401M1182 401L1183 402L1182 401z"/>
<path style="fill:#9d9d9d; stroke:none;" d="M113 402L112 404L113 402z"/>
<path style="fill:#616161; stroke:none;" d="M135 402L136 403L135 402M144 402L145 403L144 402z"/>
<path style="fill:#9d9d9d; stroke:none;" d="M157 402L158 403L157 402z"/>
<path style="fill:#616161; stroke:none;" d="M169 402L170 403L169 402M174 402L175 403L174 402M1031.33 402.667L1031.67 403.333L1031.33 402.667z"/>
<path style="fill:#9d9d9d; stroke:none;" d="M1182 402L1183 403L1182 402M1194.33 402.667L1194.67 403.333L1194.33 402.667z"/>
<path style="fill:#616161; stroke:none;" d="M1206 402L1207 403L1206 402M1248 402L1249 403L1248 402z"/>
<path style="fill:#9d9d9d; stroke:none;" d="M1260.33 402.667L1260.67 403.333L1260.33 402.667z"/>
<path style="fill:#616161; stroke:none;" d="M113 403L113 404L127 404L113 403z"/>
<path style="fill:#9d9d9d; stroke:none;" d="M131 403L132 404L131 403M137 403L138 404L137 403z"/>
<path style="fill:#616161; stroke:none;" d="M138 403L139 404L138 403M141.667 403.333L142.333 403.667L141.667 403.333z"/>
<path style="fill:#9d9d9d; stroke:none;" d="M143 403L144 404L143 403z"/>
<path style="fill:#616161; stroke:none;" d="M149 403L150 404L149 403M163 403L164 404L163 403z"/>
<path style="fill:#9d9d9d; stroke:none;" d="M168 403L169 404L168 403M173 403L174 404L173 403z"/>
<path style="fill:#616161; stroke:none;" d="M1169 403L1170 404L1169 403z"/>
<path style="fill:#9d9d9d; stroke:none;" d="M1206.33 403.667L1206.67 404.333L1206.33 403.667M1248.33 403.667L1248.67 404.333L1248.33 403.667M126 404L126 407L127 407L126 404M132 404L133 405L132 404z"/>
<path style="fill:#616161; stroke:none;" d="M148 404L149 405L148 404z"/>
<path style="fill:#9d9d9d; stroke:none;" d="M165.667 404.333L166.333 404.667L165.667 404.333M172 404L173 405L172 404M1031 404L1032 405L1031 404M1170 404L1171 405L1170 404z"/>
<path style="fill:#616161; stroke:none;" d="M1183 404L1184 405L1183 404M1194 404L1195 405L1194 404M1260 404L1261 405L1260 404M133 405L134 406L133 405M147 405L148 406L147 405M159 405L160 406L159 405z"/>
<path style="fill:#9d9d9d; stroke:none;" d="M171 405L172 406L171 405M1183 405L1183 412L1184 412L1183 405M135 406L136 407L135 406M144 406L145 407L144 406z"/>
<path style="fill:#616161; stroke:none;" d="M145 406L146 407L145 406z"/>
<path style="fill:#9d9d9d; stroke:none;" d="M161 406L162 407L161 406M169 406L170 407L169 406z"/>
<path style="fill:#616161; stroke:none;" d="M170 406L171 407L170 406M1030 406L1031 407L1030 406z"/>
<path style="fill:#9d9d9d; stroke:none;" d="M1171 406L1172 407L1171 406z"/>
<path style="fill:#616161; stroke:none;" d="M1207 406L1208 407L1207 406M1247 406L1248 407L1247 406z"/>
<path style="fill:#9d9d9d; stroke:none;" d="M1259.33 406.667L1259.67 407.333L1259.33 406.667z"/>
<path style="fill:#616161; stroke:none;" d="M138 407L138 408L143 408L138 407M163 407L163 408L168 408L163 407z"/>
<path style="fill:#9d9d9d; stroke:none;" d="M1030 407L1031 408L1030 407z"/>
<path style="fill:#616161; stroke:none;" d="M1171.33 407.667L1171.67 408.333L1171.33 407.667z"/>
<path style="fill:#9d9d9d; stroke:none;" d="M1195 407L1196 408L1195 407M1207 407L1208 408L1207 407M1247 407L1248 408L1247 407z"/>
<path style="fill:#616161; stroke:none;" d="M1341 407L1341 411L1342 411L1341 407z"/>
<path style="fill:#9d9d9d; stroke:none;" d="M985.333 408.667L985.667 409.333L985.333 408.667z"/>
<path style="fill:#616161; stroke:none;" d="M997 408L998 409L997 408M1195 408L1196 409L1195 408M1246 408L1247 409L1246 408M1259 408L1260 409L1259 408z"/>
<path style="fill:#9d9d9d; stroke:none;" d="M997 409L998 410L997 409z"/>
<path style="fill:#616161; stroke:none;" d="M1029 409L1030 410L1029 409z"/>
<path style="fill:#9d9d9d; stroke:none;" d="M1208 409L1209 410L1208 409M1246 409L1247 410L1246 409z"/>
<path style="fill:#616161; stroke:none;" d="M985 410L986 411L985 410z"/>
<path style="fill:#9d9d9d; stroke:none;" d="M1196 410L1197 411L1196 410M1258 410L1259 411L1258 410z"/>
<path style="fill:#616161; stroke:none;" d="M998 411L999 412L998 411z"/>
<path style="fill:#9d9d9d; stroke:none;" d="M1028 411L1029 412L1028 411z"/>
<path style="fill:#616161; stroke:none;" d="M1171 411L1172 412L1171 411z"/>
<path style="fill:#9d9d9d; stroke:none;" d="M1209 411L1210 412L1209 411M1245 411L1246 412L1245 411M1341.33 411.667L1341.67 412.333L1341.33 411.667M998 412L999 413L998 412z"/>
<path style="fill:#616161; stroke:none;" d="M1027 412L1028 413L1027 412z"/>
<path style="fill:#9d9d9d; stroke:none;" d="M1171 412L1172 413L1171 412z"/>
<path style="fill:#616161; stroke:none;" d="M1183.33 412.667L1183.67 413.333L1183.33 412.667z"/>
<path style="fill:#9d9d9d; stroke:none;" d="M1197 412L1198 413L1197 412z"/>
<path style="fill:#616161; stroke:none;" d="M1210 412L1211 413L1210 412M1244 412L1245 413L1244 412z"/>
<path style="fill:#9d9d9d; stroke:none;" d="M1257 412L1258 413L1257 412M986 413L987 414L986 413M1142 413L1143 414L1142 413z"/>
<path style="fill:#616161; stroke:none;" d="M1197 413L1198 414L1197 413M1329 413L1330 414L1329 413M986 414L987 415L986 414z"/>
<path style="fill:#9d9d9d; stroke:none;" d="M999 414L1000 415L999 414M1026 414L1027 415L1026 414z"/>
<path style="fill:#616161; stroke:none;" d="M1140 414L1141 415L1140 414z"/>
<path style="fill:#9d9d9d; stroke:none;" d="M1143 414L1144 415L1143 414z"/>
<path style="fill:#616161; stroke:none;" d="M1170 414L1171 415L1170 414z"/>
<path style="fill:#9d9d9d; stroke:none;" d="M1198 414L1199 415L1198 414M1211 414L1212 415L1211 414M1243 414L1244 415L1243 414M1256 414L1257 415L1256 414z"/>
<path style="fill:#616161; stroke:none;" d="M1342 414L1343 415L1342 414M1000 415L1001 416L1000 415z"/>
<path style="fill:#9d9d9d; stroke:none;" d="M1139 415L1140 416L1139 415M1144 415L1145 416L1144 415M1182 415L1183 416L1182 415M1212 415L1213 416L1212 415M1242 415L1243 416L1242 415M1342 415L1343 416L1342 415M987 416L988 417L987 416z"/>
<path style="fill:#616161; stroke:none;" d="M1023 416L1024 417L1023 416z"/>
<path style="fill:#9d9d9d; stroke:none;" d="M1138 416L1139 417L1138 416z"/>
<path style="fill:#616161; stroke:none;" d="M1145 416L1146 417L1145 416z"/>
<path style="fill:#9d9d9d; stroke:none;" d="M1169 416L1170 417L1169 416z"/>
<path style="fill:#616161; stroke:none;" d="M1182 416L1183 417L1182 416z"/>
<path style="fill:#9d9d9d; stroke:none;" d="M1199 416L1200 417L1199 416M1213 416L1214 417L1213 416z"/>
<path style="fill:#616161; stroke:none;" d="M1255 416L1256 417L1255 416z"/>
<path style="fill:#9d9d9d; stroke:none;" d="M1330 416L1331 417L1330 416z"/>
<path style="fill:#616161; stroke:none;" d="M1343 416L1344 417L1343 416M987 417L988 418L987 417M1022 417L1023 418L1022 417M1032 417L1033 418L1032 417M1136 417L1137 418L1136 417z"/>
<path style="fill:#9d9d9d; stroke:none;" d="M1146 417L1147 418L1146 417M1168 417L1169 418L1168 417z"/>
<path style="fill:#616161; stroke:none;" d="M1215 417L1216 418L1215 417M1239 417L1240 418L1239 417z"/>
<path style="fill:#9d9d9d; stroke:none;" d="M1254 417L1255 418L1254 417z"/>
<path style="fill:#616161; stroke:none;" d="M1330 417L1331 418L1330 417z"/>
<path style="fill:#9d9d9d; stroke:none;" d="M988 418L989 419L988 418z"/>
<path style="fill:#616161; stroke:none;" d="M1003 418L1004 419L1003 418M1020 418L1021 419L1020 418z"/>
<path style="fill:#9d9d9d; stroke:none;" d="M1031 418L1032 419L1031 418M1033 418L1033 423L1034 423L1033 418M1135.33 418.667L1135.67 419.333L1135.33 418.667z"/>
<path style="fill:#616161; stroke:none;" d="M1148 418L1149 419L1148 418z"/>
<path style="fill:#9d9d9d; stroke:none;" d="M1167 418L1168 419L1167 418M1181 418L1182 419L1181 418M1216 418L1217 419L1216 418M1238 418L1239 419L1238 418M1004 419L1005 420L1004 419z"/>
<path style="fill:#616161; stroke:none;" d="M1005 419L1006 420L1005 419z"/>
<path style="fill:#9d9d9d; stroke:none;" d="M1018 419L1019 420L1018 419M1149 419L1150 420L1149 419z"/>
<path style="fill:#616161; stroke:none;" d="M1150 419L1151 420L1150 419M1165 419L1166 420L1165 419M1201 419L1202 420L1201 419z"/>
<path style="fill:#9d9d9d; stroke:none;" d="M1218 419L1219 420L1218 419M1236 419L1237 420L1236 419M1331 419L1332 420L1331 419z"/>
<path style="fill:#616161; stroke:none;" d="M1346 419L1347 420L1346 419M1360 419L1361 420L1360 419z"/>
<path style="fill:#9d9d9d; stroke:none;" d="M1361 419L1362 420L1361 419M989 420L990 421L989 420M1007 420L1008 421L1007 420z"/>
<path style="fill:#616161; stroke:none;" d="M1008 420L1008 421L1011 421L1008 420M1012.67 420.333L1013.33 420.667L1012.67 420.333z"/>
<path style="fill:#9d9d9d; stroke:none;" d="M1014 420L1014 421L1017 421L1014 420z"/>
<path style="fill:#616161; stroke:none;" d="M1030 420L1031 421L1030 420z"/>
<path style="fill:#9d9d9d; stroke:none;" d="M1044 420L1044 424L1045 424L1044 420M1152 420L1153 421L1152 420z"/>
<path style="fill:#616161; stroke:none;" d="M1153 420L1154 421L1153 420M1162 420L1163 421L1162 420z"/>
<path style="fill:#9d9d9d; stroke:none;" d="M1163 420L1164 421L1163 420z"/>
<path style="fill:#616161; stroke:none;" d="M1180 420L1181 421L1180 420M1202 420L1203 421L1202 420z"/>
<path style="fill:#9d9d9d; stroke:none;" d="M1221 420L1222 421L1221 420z"/>
<path style="fill:#616161; stroke:none;" d="M1222 420L1223 421L1222 420M1232 420L1233 421L1232 420z"/>
<path style="fill:#9d9d9d; stroke:none;" d="M1233 420L1234 421L1233 420z"/>
<path style="fill:#616161; stroke:none;" d="M1252 420L1253 421L1252 420z"/>
<path style="fill:#9d9d9d; stroke:none;" d="M1348 420L1349 421L1348 420z"/>
<path style="fill:#616161; stroke:none;" d="M1349 420L1349 421L1352 421L1349 420M1353 420L1353 421L1357 421L1353 420z"/>
<path style="fill:#9d9d9d; stroke:none;" d="M1357.67 420.333L1358.33 420.667L1357.67 420.333z"/>
<path style="fill:#616161; stroke:none;" d="M1029 421L1030 422L1029 421M1136 421L1137 422L1136 421z"/>
<path style="fill:#9d9d9d; stroke:none;" d="M1158.67 421.333L1159.33 421.667L1158.67 421.333M1179 421L1180 422L1179 421z"/>
<path style="fill:#616161; stroke:none;" d="M1203 421L1204 422L1203 421z"/>
<path style="fill:#9d9d9d; stroke:none;" d="M1227 421L1228 422L1227 421z"/>
<path style="fill:#616161; stroke:none;" d="M1251 421L1252 422L1251 421z"/>
<path style="fill:#9d9d9d; stroke:none;" d="M1332 421L1333 422L1332 421z"/>
<path style="fill:#616161; stroke:none;" d="M990 422L991 423L990 422z"/>
<path style="fill:#9d9d9d; stroke:none;" d="M1028 422L1029 423L1028 422z"/>
<path style="fill:#616161; stroke:none;" d="M1137 422L1138 423L1137 422z"/>
<path style="fill:#9d9d9d; stroke:none;" d="M1178 422L1179 423L1178 422z"/>
<path style="fill:#616161; stroke:none;" d="M1204 422L1205 423L1204 422M1250 422L1251 423L1250 422M1362 422L1362 425L1363 425L1362 422M991 423L992 424L991 423z"/>
<path style="fill:#9d9d9d; stroke:none;" d="M1027 423L1028 424L1027 423z"/>
<path style="fill:#616161; stroke:none;" d="M1033.33 423.667L1033.67 424.333L1033.33 423.667M1138 423L1139 424L1138 423z"/>
<path style="fill:#9d9d9d; stroke:none;" d="M1177 423L1178 424L1177 423z"/>
<path style="fill:#616161; stroke:none;" d="M1205 423L1206 424L1205 423M992 424L993 425L992 424M1026 424L1027 425L1026 424M1139 424L1140 425L1139 424z"/>
<path style="fill:#9d9d9d; stroke:none;" d="M1176 424L1177 425L1176 424M1207 424L1208 425L1207 424M1247 424L1248 425L1247 424z"/>
<path style="fill:#616161; stroke:none;" d="M1334 424L1335 425L1334 424M993 425L994 426L993 425M1025 425L1026 426L1025 425z"/>
<path style="fill:#9d9d9d; stroke:none;" d="M1141 425L1142 426L1141 425z"/>
<path style="fill:#616161; stroke:none;" d="M1175 425L1176 426L1175 425M1208 425L1209 426L1208 425M1246 425L1247 426L1246 425M1335 425L1336 426L1335 425z"/>
<path style="fill:#9d9d9d; stroke:none;" d="M1362 425L1361 429L1362 429L1362 425M995 426L996 427L995 426M1023 426L1024 427L1023 426z"/>
<path style="fill:#616161; stroke:none;" d="M1142 426L1143 427L1142 426z"/>
<path style="fill:#9d9d9d; stroke:none;" d="M1173 426L1174 427L1173 426M1210 426L1211 427L1210 426z"/>
<path style="fill:#616161; stroke:none;" d="M1244 426L1245 427L1244 426M1336 426L1337 427L1336 426M996 427L997 428L996 427z"/>
<path style="fill:#9d9d9d; stroke:none;" d="M1021 427L1022 428L1021 427M1034.33 427.667L1034.67 428.333L1034.33 427.667z"/>
<path style="fill:#616161; stroke:none;" d="M1045.33 427.667L1045.67 428.333L1045.33 427.667M1144 427L1145 428L1144 427z"/>
<path style="fill:#9d9d9d; stroke:none;" d="M1171 427L1172 428L1171 427z"/>
<path style="fill:#616161; stroke:none;" d="M1172 427L1173 428L1172 427z"/>
<path style="fill:#9d9d9d; stroke:none;" d="M1212 427L1213 428L1212 427z"/>
<path style="fill:#616161; stroke:none;" d="M1242 427L1243 428L1242 427z"/>
<path style="fill:#9d9d9d; stroke:none;" d="M1338 427L1339 428L1338 427z"/>
<path style="fill:#616161; stroke:none;" d="M998 428L999 429L998 428z"/>
<path style="fill:#9d9d9d; stroke:none;" d="M999 428L1000 429L999 428M1019 428L1020 429L1019 428z"/>
<path style="fill:#616161; stroke:none;" d="M1146 428L1147 429L1146 428z"/>
<path style="fill:#9d9d9d; stroke:none;" d="M1147 428L1148 429L1147 428M1169 428L1170 429L1169 428z"/>
<path style="fill:#616161; stroke:none;" d="M1214 428L1215 429L1214 428z"/>
<path style="fill:#9d9d9d; stroke:none;" d="M1215 428L1216 429L1215 428M1238.67 428.333L1239.33 428.667L1238.67 428.333z"/>
<path style="fill:#616161; stroke:none;" d="M1240 428L1241 429L1240 428M1339 428L1340 429L1339 428z"/>
<path style="fill:#9d9d9d; stroke:none;" d="M1340 428L1341 429L1340 428z"/>
<path style="fill:#616161; stroke:none;" d="M1362 428L1363 429L1362 428M1001 429L1002 430L1001 429z"/>
<path style="fill:#9d9d9d; stroke:none;" d="M1002 429L1003 430L1002 429M1015.67 429.333L1016.33 429.667L1015.67 429.333z"/>
<path style="fill:#616161; stroke:none;" d="M1149 429L1150 430L1149 429z"/>
<path style="fill:#9d9d9d; stroke:none;" d="M1150.67 429.333L1151.33 429.667L1150.67 429.333M1165 429L1166 430L1165 429z"/>
<path style="fill:#616161; stroke:none;" d="M1166.67 429.333L1167.33 429.667L1166.67 429.333M1217.67 429.333L1218.33 429.667L1217.67 429.333z"/>
<path style="fill:#9d9d9d; stroke:none;" d="M1219 429L1220 430L1219 429M1235 429L1236 430L1235 429z"/>
<path style="fill:#616161; stroke:none;" d="M1236 429L1237 430L1236 429M1342 429L1343 430L1342 429z"/>
<path style="fill:#9d9d9d; stroke:none;" d="M1343 429L1344 430L1343 429M1357.67 429.333L1358.33 429.667L1357.67 429.333z"/>
<path style="fill:#616161; stroke:none;" d="M1359 429L1360 430L1359 429M1006 430L1006 431L1013 431L1006 430M1154 430L1154 431L1162 431L1154 430M1223 430L1223 431L1230 431L1223 430M1346 430L1346 431L1354 431L1346 430z"/>
<path style="fill:#7f0103; stroke:none;" d="M200 480L200 540L600 540L600 480L200 480z"/>
<path style="fill:#9d9d9d; stroke:none;" d="M118 495L118 496L124 495L118 495z"/>
<path style="fill:#616161; stroke:none;" d="M137 494L138 495L137 494z"/>
<path style="fill:#9d9d9d; stroke:none;" d="M138.667 494.333L139.333 494.667L138.667 494.333z"/>
<path style="fill:#fdfdfd; stroke:none;" d="M140.001 494.577C126.07 496.414 127.626 528.108 142.996 525.756C155.583 523.831 154.429 492.675 140.001 494.577z"/>
<path style="fill:#9d9d9d; stroke:none;" d="M143 494L144 495L143 494z"/>
<path style="fill:#616161; stroke:none;" d="M144 494L145 495L144 494M162 494L163 495L162 494z"/>
<path style="fill:#9d9d9d; stroke:none;" d="M163 494L164 495L163 494z"/>
<path style="fill:#fdfdfd; stroke:none;" d="M164.004 494.663C151.191 497.41 152.673 529.596 167.996 525.562C180.573 522.251 179.14 491.418 164.004 494.663z"/>
<path style="fill:#9d9d9d; stroke:none;" d="M167.667 494.333L168.333 494.667L167.667 494.333z"/>
<path style="fill:#616161; stroke:none;" d="M169 494L170 495L169 494z"/>
<path style="fill:#fdfdfd; stroke:none;" d="M106 520L120 520L120 526L124 526L127 520L127 517L124 517L124 495C114.832 495.697 106.866 511.589 106 520z"/>
<path style="fill:#616161; stroke:none;" d="M135 495L136 496L135 495M146 495L147 496L146 495M160 495L161 496L160 495M171 495L172 496L171 495M117 496L118 497L117 496M134 496L135 497L134 496z"/>
<path style="fill:#9d9d9d; stroke:none;" d="M147 496L148 497L147 496M159 496L160 497L159 496z"/>
<path style="fill:#616161; stroke:none;" d="M172 496L173 497L172 496M133 497L134 498L133 497z"/>
<path style="fill:#9d9d9d; stroke:none;" d="M139 497L140 498L139 497z"/>
<path style="fill:#616161; stroke:none;" d="M140 497L140 498L143 498L140 497z"/>
<path style="fill:#9d9d9d; stroke:none;" d="M148 497L149 498L148 497M158 497L159 498L158 497z"/>
<path style="fill:#616161; stroke:none;" d="M164 497L164 498L167 498L164 497z"/>
<path style="fill:#9d9d9d; stroke:none;" d="M167 497L168 498L167 497z"/>
<path style="fill:#616161; stroke:none;" d="M173 497L174 498L173 497z"/>
<path style="fill:#9d9d9d; stroke:none;" d="M116 498L117 499L116 498M137 498L138 499L137 498z"/>
<path style="fill:#171717; stroke:none;" d="M138.419 499.032C132.029 503.138 134.63 527.26 143.581 521.802C150.066 517.847 147.819 492.993 138.419 499.032z"/>
<path style="fill:#9d9d9d; stroke:none;" d="M144 498L145 499L144 498z"/>
<path style="fill:#616161; stroke:none;" d="M149 498L150 499L149 498M157 498L158 499L157 498z"/>
<path style="fill:#9d9d9d; stroke:none;" d="M162 498L161 500L162 498z"/>
<path style="fill:#171717; stroke:none;" d="M163.278 499.032C157.311 502.677 158.84 526.611 167.86 521.928C175.253 518.089 172.758 493.241 163.278 499.032z"/>
<path style="fill:#9d9d9d; stroke:none;" d="M169 498L170 499L169 498z"/>
<path style="fill:#616161; stroke:none;" d="M115 499L116 500L115 499z"/>
<path style="fill:#9d9d9d; stroke:none;" d="M132 499L133 500L132 499M145 499L146 500L145 499M149 499L150 500L149 499M157 499L158 500L157 499M174 499L175 500L174 499M115 500L116 501L115 500z"/>
<path style="fill:#616161; stroke:none;" d="M119 500L119 517L120 517L119 500M136 500L137 501L136 500M150 500L151 501L150 500M156 500L157 501L156 500M170 500L171 501L170 500M114 501L115 502L114 501z"/>
<path style="fill:#9d9d9d; stroke:none;" d="M118 501L119 502L118 501z"/>
<path style="fill:#616161; stroke:none;" d="M131 501L132 502L131 501z"/>
<path style="fill:#9d9d9d; stroke:none;" d="M146 501L147 502L146 501M150 501L151 502L150 501M156 501L157 502L156 501M160 501L161 502L160 501z"/>
<path style="fill:#616161; stroke:none;" d="M175 501L176 502L175 501z"/>
<path style="fill:#171717; stroke:none;" d="M118 502L110 517L119 517L118 502z"/>
<path style="fill:#9d9d9d; stroke:none;" d="M131 502L132 503L131 502M135 502L136 503L135 502z"/>
<path style="fill:#616161; stroke:none;" d="M146 502L147 503L146 502M160 502L161 503L160 502z"/>
<path style="fill:#9d9d9d; stroke:none;" d="M171 502L172 503L171 502M175 502L176 503L175 502M113 503L114 504L113 503z"/>
<path style="fill:#616161; stroke:none;" d="M117 503L118 504L117 503M135 503L136 504L135 503M171 503L172 504L171 503M112 504L113 505L112 504z"/>
<path style="fill:#9d9d9d; stroke:none;" d="M116 504L117 505L116 504z"/>
<path style="fill:#616161; stroke:none;" d="M151 504L152 505L151 504M155 504L156 505L155 504z"/>
<path style="fill:#9d9d9d; stroke:none;" d="M112 505L113 506L112 505z"/>
<path style="fill:#616161; stroke:none;" d="M130 505L130 508L131 508L130 505z"/>
<path style="fill:#9d9d9d; stroke:none;" d="M147 505L147 509L148 509L147 505M151 505L151 515L152 515L151 505M155 505L155 515L156 515L155 505M159 505L159 509L160 509L159 505z"/>
<path style="fill:#616161; stroke:none;" d="M176 505L176 508L177 508L176 505M111 506L112 507L111 506z"/>
<path style="fill:#9d9d9d; stroke:none;" d="M115 506L116 507L115 506M110 508L111 509L110 508z"/>
<path style="fill:#616161; stroke:none;" d="M114 508L115 509L114 508z"/>
<path style="fill:#9d9d9d; stroke:none;" d="M130 508L130 512L131 512L130 508M134 508L134 513L135 513L134 508M172 508L172 513L173 513L172 508M176 508L176 512L177 512L176 508z"/>
<path style="fill:#616161; stroke:none;" d="M109 509L110 510L109 509z"/>
<path style="fill:#9d9d9d; stroke:none;" d="M113 509L114 510L113 509z"/>
<path style="fill:#616161; stroke:none;" d="M147.333 509.667L147.667 510.333L147.333 509.667M159.333 509.667L159.667 510.333L159.333 509.667z"/>
<path style="fill:#9d9d9d; stroke:none;" d="M109 510L110 511L109 510z"/>
<path style="fill:#616161; stroke:none;" d="M108 511L109 512L108 511z"/>
<path style="fill:#9d9d9d; stroke:none;" d="M112 511L113 512L112 511M147 511L147 516L148 516L147 511M159 511L159 516L160 516L159 511z"/>
<path style="fill:#616161; stroke:none;" d="M130 512L130 515L131 515L130 512M176 512L176 515L177 515L176 512z"/>
<path style="fill:#9d9d9d; stroke:none;" d="M107 513L108 514L107 513z"/>
<path style="fill:#616161; stroke:none;" d="M111 513L112 514L111 513M106 514L107 515L106 514z"/>
<path style="fill:#9d9d9d; stroke:none;" d="M110 514L111 515L110 514M106 515L107 516L106 515z"/>
<path style="fill:#616161; stroke:none;" d="M151.333 515.667L151.667 516.333L151.333 515.667M155.333 515.667L155.667 516.333L155.333 515.667M105 516L106 517L105 516z"/>
<path style="fill:#9d9d9d; stroke:none;" d="M109 516L110 517L109 516z"/>
<path style="fill:#616161; stroke:none;" d="M135 516L136 517L135 516M171 516L172 517L171 516z"/>
<path style="fill:#9d9d9d; stroke:none;" d="M105 517C106.943 522.855 114.871 521 120 521L120 520C114.596 520 109.163 520.974 105 517z"/>
<path style="fill:#616161; stroke:none;" d="M127 517L128 518L127 517z"/>
<path style="fill:#9d9d9d; stroke:none;" d="M131.333 517.667L131.667 518.333L131.333 517.667M135 517L136 518L135 517z"/>
<path style="fill:#616161; stroke:none;" d="M146 517L147 518L146 517M160 517L161 518L160 517z"/>
<path style="fill:#9d9d9d; stroke:none;" d="M171 517L172 518L171 517M175.333 517.667L175.667 518.333L175.333 517.667M127 518L124 520L124 521L127 518M146 518L147 519L146 518M150 518L151 519L150 518M156 518L157 519L156 518M160 518L161 519L160 518z"/>
<path style="fill:#616161; stroke:none;" d="M131 519L132 520L131 519M150 519L151 520L150 519M156 519L157 520L156 519M175 519L176 520L175 519M105 520L106 521L105 520M127 520L128 521L127 520z"/>
<path style="fill:#9d9d9d; stroke:none;" d="M132 520L133 521L132 520M136 520L137 521L136 520z"/>
<path style="fill:#616161; stroke:none;" d="M145 520L146 521L145 520M161 520L162 521L161 520z"/>
<path style="fill:#9d9d9d; stroke:none;" d="M170 520L171 521L170 520M174 520L175 521L174 520z"/>
<path style="fill:#616161; stroke:none;" d="M119 521L119 526L120 526L119 521M132 521L133 522L132 521M137 521L138 522L137 521z"/>
<path style="fill:#9d9d9d; stroke:none;" d="M149 521L150 522L149 521M157 521L158 522L157 521z"/>
<path style="fill:#616161; stroke:none;" d="M169 521L170 522L169 521M174 521L175 522L174 521z"/>
<path style="fill:#9d9d9d; stroke:none;" d="M133 522L134 523L133 522M138 522L139 523L138 522z"/>
<path style="fill:#616161; stroke:none;" d="M143 522L144 523L143 522M163 522L164 523L163 522z"/>
<path style="fill:#9d9d9d; stroke:none;" d="M168 522L169 523L168 522M173 522L174 523L173 522M134 523L135 524L134 523M141 523L142 524L141 523M165.667 523.333L166.333 523.667L165.667 523.333M172 523L173 524L172 523M135 524L136 525L135 524z"/>
<path style="fill:#616161; stroke:none;" d="M147 524L148 525L147 524M159 524L160 525L159 524z"/>
<path style="fill:#9d9d9d; stroke:none;" d="M171 524L172 525L171 524z"/>
<path style="fill:#616161; stroke:none;" d="M136 525L137 526L136 525z"/>
<path style="fill:#9d9d9d; stroke:none;" d="M137 525L138 526L137 525M145 525L146 526L145 525M161 525L162 526L161 525M169 525L170 526L169 525z"/>
<path style="fill:#616161; stroke:none;" d="M170 525L171 526L170 525M139 526L139 527L144 527L139 526M163 526L163 527L168 527L163 526z"/>
</svg>
